<mxfile host="Electron" agent="Mozilla/5.0 (Windows NT 10.0; Win64; x64) AppleWebKit/537.36 (KHTML, like Gecko) draw.io/24.7.17 Chrome/128.0.6613.36 Electron/32.0.1 Safari/537.36" version="24.7.17">
  <diagram name="Página-1" id="xvlAqDjhet9jPKieb227">
    <mxGraphModel dx="724" dy="428" grid="1" gridSize="10" guides="1" tooltips="1" connect="1" arrows="1" fold="1" page="1" pageScale="1" pageWidth="1169" pageHeight="827" math="0" shadow="0">
      <root>
        <mxCell id="0" />
        <mxCell id="1" parent="0" />
        <mxCell id="1ZX0r9PRURlxyfdf4E23-5" value="" style="endArrow=none;dashed=1;html=1;rounded=0;" edge="1" parent="1" target="IKIjB49LiLu1HHEKsyTa-18">
          <mxGeometry width="50" height="50" relative="1" as="geometry">
            <mxPoint x="305" y="680" as="sourcePoint" />
            <mxPoint x="305" y="240" as="targetPoint" />
          </mxGeometry>
        </mxCell>
        <mxCell id="vwazoXtM_CZJs7zGy2Sd-7" value="" style="endArrow=none;dashed=1;html=1;rounded=0;strokeWidth=1;endSize=6;jumpSize=6;" parent="1" edge="1">
          <mxGeometry width="50" height="50" relative="1" as="geometry">
            <mxPoint x="525" y="680" as="sourcePoint" />
            <mxPoint x="524.66" y="240" as="targetPoint" />
          </mxGeometry>
        </mxCell>
        <mxCell id="vwazoXtM_CZJs7zGy2Sd-6" value="" style="endArrow=none;dashed=1;html=1;rounded=0;strokeWidth=1;endSize=6;jumpSize=6;" parent="1" edge="1">
          <mxGeometry width="50" height="50" relative="1" as="geometry">
            <mxPoint x="415" y="680" as="sourcePoint" />
            <mxPoint x="414.78" y="240" as="targetPoint" />
          </mxGeometry>
        </mxCell>
        <mxCell id="vwazoXtM_CZJs7zGy2Sd-5" value="" style="endArrow=none;dashed=1;html=1;rounded=0;" parent="1" edge="1">
          <mxGeometry width="50" height="50" relative="1" as="geometry">
            <mxPoint x="195" y="680" as="sourcePoint" />
            <mxPoint x="194.78" y="240" as="targetPoint" />
          </mxGeometry>
        </mxCell>
        <mxCell id="vwazoXtM_CZJs7zGy2Sd-4" value="" style="endArrow=none;dashed=1;html=1;rounded=0;" parent="1" edge="1" source="IKIjB49LiLu1HHEKsyTa-18">
          <mxGeometry width="50" height="50" relative="1" as="geometry">
            <mxPoint x="305" y="631.4222547743055" as="sourcePoint" />
            <mxPoint x="305" y="240" as="targetPoint" />
          </mxGeometry>
        </mxCell>
        <mxCell id="IKIjB49LiLu1HHEKsyTa-1" value="Usuario" style="shape=umlActor;verticalLabelPosition=bottom;verticalAlign=top;html=1;" parent="1" vertex="1">
          <mxGeometry x="180" y="160" width="30" height="60" as="geometry" />
        </mxCell>
        <mxCell id="IKIjB49LiLu1HHEKsyTa-10" value="" style="html=1;points=[[0,0,0,0,5],[0,1,0,0,-5],[1,0,0,0,5],[1,1,0,0,-5]];perimeter=orthogonalPerimeter;outlineConnect=0;targetShapes=umlLifeline;portConstraint=eastwest;newEdgeStyle={&quot;curved&quot;:0,&quot;rounded&quot;:0};" parent="1" vertex="1">
          <mxGeometry x="190" y="260" width="10" height="410" as="geometry" />
        </mxCell>
        <mxCell id="IKIjB49LiLu1HHEKsyTa-11" value="" style="html=1;points=[[0,0,0,0,5],[0,1,0,0,-5],[1,0,0,0,5],[1,1,0,0,-5]];perimeter=orthogonalPerimeter;outlineConnect=0;targetShapes=umlLifeline;portConstraint=eastwest;newEdgeStyle={&quot;curved&quot;:0,&quot;rounded&quot;:0};" parent="1" vertex="1">
          <mxGeometry x="300" y="270" width="10" height="120" as="geometry" />
        </mxCell>
        <mxCell id="IKIjB49LiLu1HHEKsyTa-12" value="" style="endArrow=block;endFill=1;html=1;edgeStyle=orthogonalEdgeStyle;align=left;verticalAlign=top;rounded=0;" parent="1" edge="1">
          <mxGeometry x="-1" relative="1" as="geometry">
            <mxPoint x="200" y="280" as="sourcePoint" />
            <mxPoint x="300" y="280" as="targetPoint" />
          </mxGeometry>
        </mxCell>
        <mxCell id="IKIjB49LiLu1HHEKsyTa-15" value="" style="html=1;points=[[0,0,0,0,5],[0,1,0,0,-5],[1,0,0,0,5],[1,1,0,0,-5]];perimeter=orthogonalPerimeter;outlineConnect=0;targetShapes=umlLifeline;portConstraint=eastwest;newEdgeStyle={&quot;curved&quot;:0,&quot;rounded&quot;:0};" parent="1" vertex="1">
          <mxGeometry x="410" y="280" width="10" height="100" as="geometry" />
        </mxCell>
        <mxCell id="IKIjB49LiLu1HHEKsyTa-16" value="" style="endArrow=block;endFill=1;html=1;edgeStyle=orthogonalEdgeStyle;align=left;verticalAlign=top;rounded=0;" parent="1" edge="1">
          <mxGeometry x="-1" relative="1" as="geometry">
            <mxPoint x="310" y="289.5" as="sourcePoint" />
            <mxPoint x="410" y="289.5" as="targetPoint" />
          </mxGeometry>
        </mxCell>
        <mxCell id="IKIjB49LiLu1HHEKsyTa-19" value="" style="endArrow=block;endFill=1;html=1;edgeStyle=orthogonalEdgeStyle;align=left;verticalAlign=top;rounded=0;" parent="1" edge="1">
          <mxGeometry x="-1" relative="1" as="geometry">
            <mxPoint x="200" y="420" as="sourcePoint" />
            <mxPoint x="300" y="420" as="targetPoint" />
          </mxGeometry>
        </mxCell>
        <mxCell id="IKIjB49LiLu1HHEKsyTa-21" value="" style="endArrow=block;endFill=1;html=1;edgeStyle=orthogonalEdgeStyle;align=left;verticalAlign=top;rounded=0;" parent="1" edge="1">
          <mxGeometry x="-1" relative="1" as="geometry">
            <mxPoint x="200" y="504.76" as="sourcePoint" />
            <mxPoint x="300" y="504.76" as="targetPoint" />
          </mxGeometry>
        </mxCell>
        <mxCell id="IKIjB49LiLu1HHEKsyTa-22" value="" style="html=1;points=[[0,0,0,0,5],[0,1,0,0,-5],[1,0,0,0,5],[1,1,0,0,-5]];perimeter=orthogonalPerimeter;outlineConnect=0;targetShapes=umlLifeline;portConstraint=eastwest;newEdgeStyle={&quot;curved&quot;:0,&quot;rounded&quot;:0};" parent="1" vertex="1">
          <mxGeometry x="300" y="490" width="10" height="170" as="geometry" />
        </mxCell>
        <mxCell id="IKIjB49LiLu1HHEKsyTa-26" value="" style="html=1;points=[[0,0,0,0,5],[0,1,0,0,-5],[1,0,0,0,5],[1,1,0,0,-5]];perimeter=orthogonalPerimeter;outlineConnect=0;targetShapes=umlLifeline;portConstraint=eastwest;newEdgeStyle={&quot;curved&quot;:0,&quot;rounded&quot;:0};" parent="1" vertex="1">
          <mxGeometry x="520" y="510" width="10" height="140" as="geometry" />
        </mxCell>
        <mxCell id="IKIjB49LiLu1HHEKsyTa-27" value="" style="endArrow=block;endFill=1;html=1;edgeStyle=orthogonalEdgeStyle;align=left;verticalAlign=top;rounded=0;" parent="1" edge="1">
          <mxGeometry x="-1" relative="1" as="geometry">
            <mxPoint x="310" y="520" as="sourcePoint" />
            <mxPoint x="520" y="520" as="targetPoint" />
          </mxGeometry>
        </mxCell>
        <mxCell id="IKIjB49LiLu1HHEKsyTa-29" value="" style="endArrow=block;endFill=1;html=1;edgeStyle=orthogonalEdgeStyle;align=left;verticalAlign=top;rounded=0;" parent="1" edge="1">
          <mxGeometry x="-1" relative="1" as="geometry">
            <mxPoint x="310" y="600" as="sourcePoint" />
            <mxPoint x="520" y="600" as="targetPoint" />
          </mxGeometry>
        </mxCell>
        <mxCell id="IKIjB49LiLu1HHEKsyTa-32" value="" style="html=1;verticalAlign=bottom;endArrow=open;dashed=1;endSize=8;curved=0;rounded=0;" parent="1" edge="1">
          <mxGeometry relative="1" as="geometry">
            <mxPoint x="300" y="380" as="sourcePoint" />
            <mxPoint x="200" y="380" as="targetPoint" />
          </mxGeometry>
        </mxCell>
        <mxCell id="IKIjB49LiLu1HHEKsyTa-33" value="" style="html=1;verticalAlign=bottom;endArrow=open;dashed=1;endSize=8;curved=0;rounded=0;" parent="1" edge="1">
          <mxGeometry relative="1" as="geometry">
            <mxPoint x="410" y="330" as="sourcePoint" />
            <mxPoint x="310" y="330" as="targetPoint" />
          </mxGeometry>
        </mxCell>
        <mxCell id="IKIjB49LiLu1HHEKsyTa-34" value="" style="html=1;verticalAlign=bottom;endArrow=open;dashed=1;endSize=8;curved=0;rounded=0;" parent="1" edge="1">
          <mxGeometry relative="1" as="geometry">
            <mxPoint x="300" y="460" as="sourcePoint" />
            <mxPoint x="200" y="460" as="targetPoint" />
          </mxGeometry>
        </mxCell>
        <mxCell id="IKIjB49LiLu1HHEKsyTa-36" value="" style="html=1;verticalAlign=bottom;endArrow=open;dashed=1;endSize=8;curved=0;rounded=0;" parent="1" source="IKIjB49LiLu1HHEKsyTa-26" edge="1">
          <mxGeometry relative="1" as="geometry">
            <mxPoint x="410" y="560" as="sourcePoint" />
            <mxPoint x="310" y="560" as="targetPoint" />
          </mxGeometry>
        </mxCell>
        <mxCell id="IKIjB49LiLu1HHEKsyTa-37" value="" style="html=1;verticalAlign=bottom;endArrow=open;dashed=1;endSize=8;curved=0;rounded=0;" parent="1" edge="1">
          <mxGeometry relative="1" as="geometry">
            <mxPoint x="520" y="640" as="sourcePoint" />
            <mxPoint x="310" y="640" as="targetPoint" />
          </mxGeometry>
        </mxCell>
        <mxCell id="IKIjB49LiLu1HHEKsyTa-39" value="" style="html=1;verticalAlign=bottom;endArrow=open;dashed=1;endSize=8;curved=0;rounded=0;entryX=0.063;entryY=1.008;entryDx=0;entryDy=0;entryPerimeter=0;" parent="1" edge="1" target="IKIjB49LiLu1HHEKsyTa-53" source="IKIjB49LiLu1HHEKsyTa-22">
          <mxGeometry relative="1" as="geometry">
            <mxPoint x="295" y="649.35" as="sourcePoint" />
            <mxPoint x="195" y="649.35" as="targetPoint" />
          </mxGeometry>
        </mxCell>
        <mxCell id="IKIjB49LiLu1HHEKsyTa-40" value="&lt;font style=&quot;font-size: 8px;&quot;&gt;1. Rellenar inicio de sesión&lt;/font&gt;" style="text;html=1;align=center;verticalAlign=middle;whiteSpace=wrap;rounded=0;" parent="1" vertex="1">
          <mxGeometry x="200" y="250" width="100" height="30" as="geometry" />
        </mxCell>
        <mxCell id="IKIjB49LiLu1HHEKsyTa-41" value="&lt;font style=&quot;font-size: 8px;&quot;&gt;2. Validar datos&lt;/font&gt;" style="text;html=1;align=center;verticalAlign=middle;whiteSpace=wrap;rounded=0;" parent="1" vertex="1">
          <mxGeometry x="310" y="260" width="100" height="30" as="geometry" />
        </mxCell>
        <mxCell id="IKIjB49LiLu1HHEKsyTa-42" value="&lt;font style=&quot;font-size: 8px;&quot;&gt;3. No es válido&lt;/font&gt;" style="text;html=1;align=center;verticalAlign=middle;whiteSpace=wrap;rounded=0;" parent="1" vertex="1">
          <mxGeometry x="310" y="300" width="100" height="30" as="geometry" />
        </mxCell>
        <mxCell id="IKIjB49LiLu1HHEKsyTa-43" value="&lt;font style=&quot;font-size: 8px;&quot;&gt;4. Conceder acceso&amp;nbsp;&lt;/font&gt;" style="text;html=1;align=center;verticalAlign=middle;whiteSpace=wrap;rounded=0;" parent="1" vertex="1">
          <mxGeometry x="200" y="350" width="100" height="30" as="geometry" />
        </mxCell>
        <mxCell id="IKIjB49LiLu1HHEKsyTa-44" value="&lt;span style=&quot;font-size: 8px;&quot;&gt;5. Cliquear en boton de consultar datos&lt;/span&gt;" style="text;html=1;align=center;verticalAlign=middle;whiteSpace=wrap;rounded=0;" parent="1" vertex="1">
          <mxGeometry x="200" y="390" width="100" height="30" as="geometry" />
        </mxCell>
        <mxCell id="IKIjB49LiLu1HHEKsyTa-45" value="&lt;span style=&quot;font-size: 8px;&quot;&gt;6. Mostrar la pantalla de consultar datos&lt;/span&gt;" style="text;html=1;align=center;verticalAlign=middle;whiteSpace=wrap;rounded=0;" parent="1" vertex="1">
          <mxGeometry x="200" y="425" width="100" height="30" as="geometry" />
        </mxCell>
        <mxCell id="IKIjB49LiLu1HHEKsyTa-46" value="&lt;span style=&quot;font-size: 8px;&quot;&gt;7. Elegir datos&lt;/span&gt;" style="text;html=1;align=center;verticalAlign=middle;whiteSpace=wrap;rounded=0;" parent="1" vertex="1">
          <mxGeometry x="200" y="470" width="100" height="30" as="geometry" />
        </mxCell>
        <mxCell id="IKIjB49LiLu1HHEKsyTa-49" value="&lt;span style=&quot;font-size: 8px;&quot;&gt;8. Llamar BD&lt;/span&gt;" style="text;html=1;align=center;verticalAlign=middle;whiteSpace=wrap;rounded=0;" parent="1" vertex="1">
          <mxGeometry x="310" y="490" width="210" height="30" as="geometry" />
        </mxCell>
        <mxCell id="IKIjB49LiLu1HHEKsyTa-50" value="&lt;span style=&quot;font-size: 8px;&quot;&gt;9. Conexion BD aceptada&lt;/span&gt;" style="text;html=1;align=center;verticalAlign=middle;whiteSpace=wrap;rounded=0;" parent="1" vertex="1">
          <mxGeometry x="310" y="530" width="210" height="30" as="geometry" />
        </mxCell>
        <mxCell id="IKIjB49LiLu1HHEKsyTa-51" value="&lt;span style=&quot;font-size: 8px;&quot;&gt;10. Mandar query de solicitud&lt;/span&gt;" style="text;html=1;align=center;verticalAlign=middle;whiteSpace=wrap;rounded=0;" parent="1" vertex="1">
          <mxGeometry x="310" y="570" width="210" height="30" as="geometry" />
        </mxCell>
        <mxCell id="IKIjB49LiLu1HHEKsyTa-52" value="&lt;span style=&quot;font-size: 8px;&quot;&gt;11. Devolver datos solicitados&lt;/span&gt;" style="text;html=1;align=center;verticalAlign=middle;whiteSpace=wrap;rounded=0;" parent="1" vertex="1">
          <mxGeometry x="310" y="610" width="210" height="30" as="geometry" />
        </mxCell>
        <mxCell id="IKIjB49LiLu1HHEKsyTa-53" value="&lt;span style=&quot;font-size: 8px;&quot;&gt;12. Mostrar datos&lt;/span&gt;" style="text;html=1;align=center;verticalAlign=middle;whiteSpace=wrap;rounded=0;" parent="1" vertex="1">
          <mxGeometry x="195" y="619.35" width="100" height="30" as="geometry" />
        </mxCell>
        <mxCell id="vwazoXtM_CZJs7zGy2Sd-1" value="UI / Aplicacion" style="rounded=1;whiteSpace=wrap;html=1;" parent="1" vertex="1">
          <mxGeometry x="252.5" y="165" width="105" height="50" as="geometry" />
        </mxCell>
        <mxCell id="vwazoXtM_CZJs7zGy2Sd-2" value="Reglas negocio" style="rounded=1;whiteSpace=wrap;html=1;" parent="1" vertex="1">
          <mxGeometry x="362.5" y="165" width="105" height="50" as="geometry" />
        </mxCell>
        <mxCell id="vwazoXtM_CZJs7zGy2Sd-3" value="Base de datos" style="rounded=1;whiteSpace=wrap;html=1;" parent="1" vertex="1">
          <mxGeometry x="472.5" y="165" width="105" height="50" as="geometry" />
        </mxCell>
        <mxCell id="1ZX0r9PRURlxyfdf4E23-1" value="&lt;font style=&quot;font-size: 8px;&quot;&gt;3. Es válido&lt;/font&gt;" style="text;html=1;align=center;verticalAlign=middle;whiteSpace=wrap;rounded=0;" vertex="1" parent="1">
          <mxGeometry x="310" y="340" width="100" height="30" as="geometry" />
        </mxCell>
        <mxCell id="1ZX0r9PRURlxyfdf4E23-2" value="" style="html=1;verticalAlign=bottom;endArrow=open;dashed=1;endSize=8;curved=0;rounded=0;" edge="1" parent="1">
          <mxGeometry relative="1" as="geometry">
            <mxPoint x="410" y="369.52" as="sourcePoint" />
            <mxPoint x="310" y="369.52" as="targetPoint" />
          </mxGeometry>
        </mxCell>
        <mxCell id="1ZX0r9PRURlxyfdf4E23-3" value="" style="html=1;verticalAlign=bottom;endArrow=open;dashed=1;endSize=8;curved=0;rounded=0;" edge="1" parent="1">
          <mxGeometry relative="1" as="geometry">
            <mxPoint x="300" y="339.52" as="sourcePoint" />
            <mxPoint x="200" y="339.52" as="targetPoint" />
          </mxGeometry>
        </mxCell>
        <mxCell id="1ZX0r9PRURlxyfdf4E23-4" value="&lt;font style=&quot;font-size: 8px;&quot;&gt;4. Mensaje de error&lt;/font&gt;" style="text;html=1;align=center;verticalAlign=middle;whiteSpace=wrap;rounded=0;" vertex="1" parent="1">
          <mxGeometry x="200" y="309.52" width="100" height="30" as="geometry" />
        </mxCell>
        <mxCell id="IKIjB49LiLu1HHEKsyTa-18" value="" style="html=1;points=[[0,0,0,0,5],[0,1,0,0,-5],[1,0,0,0,5],[1,1,0,0,-5]];perimeter=orthogonalPerimeter;outlineConnect=0;targetShapes=umlLifeline;portConstraint=eastwest;newEdgeStyle={&quot;curved&quot;:0,&quot;rounded&quot;:0};" parent="1" vertex="1">
          <mxGeometry x="300" y="410" width="10" height="60" as="geometry" />
        </mxCell>
        <mxCell id="1ZX0r9PRURlxyfdf4E23-8" value="alt" style="shape=umlFrame;whiteSpace=wrap;html=1;pointerEvents=0;" vertex="1" parent="1">
          <mxGeometry x="120" y="299.52" width="320" height="50" as="geometry" />
        </mxCell>
      </root>
    </mxGraphModel>
  </diagram>
</mxfile>
